<?xml version="1.0" encoding="UTF-8"?>
<svg id="Layer_1" data-name="Layer 1" xmlns="http://www.w3.org/2000/svg" viewBox="0 0 500 500">
  <defs>
    <style>
      .cls-1 {
        stroke-width: 0px;
      }
    </style>
  </defs>
  <path class="cls-1" d="M250.01,418.75c-49,0-98.01,0-147.01,0-13.55,0-16.83-3.3-16.84-16.92,0-74.49,0-148.97,0-223.46,0-13.69,3.09-16.74,16.87-16.75,18.62,0,37.24-.1,55.86.07,4.27.04,6.25-.78,7.26-5.64,8.45-40.55,43.27-68.81,83.92-68.58,40.55.23,74.78,28.23,83.22,68.54,1.01,4.81,2.9,5.73,7.22,5.69,19.36-.18,38.71-.1,58.07-.07,10.92.02,15.21,4.13,15.22,15.07.06,75.71.06,151.43,0,227.14,0,10.98-4.12,14.89-15.32,14.9-49.49.03-98.99.01-148.48.01ZM109.06,394.94h281.37v-210.74c-16.45,0-32.56.16-48.66-.09-5.14-.08-7.44.96-8.71,6.78-9.63,44.16-50.41,72.53-95.01,66.64-35.44-4.68-64.02-31.44-72.15-67.22-.51-2.25-2.91-5.78-4.49-5.82-17.32-.42-34.65-.26-52.36-.26v210.72ZM249.95,110.18c-34.73-.07-63.27,28.31-63.28,62.92,0,34.51,28.83,63.25,63.28,63.05,34.47-.19,62.64-28.3,62.83-62.69.19-34.76-28.06-63.21-62.84-63.28Z"/>
  <path class="cls-1" d="M222.59,330.36c6.82-7.64,13.99-16.97,22.5-24.85,9.4-8.7,21.27-12.85,34.25-12.94,6.57-.05,10.63,3.36,11.61,9.87.93,6.24-2.84,12.16-9.39,12.72-25.39,2.14-36.02,19.78-43.93,40.57-.78,2.05-1.33,4.19-2.03,6.27-2.71,7.99-7.71,11.85-14.94,11.55-7.05-.29-11.88-4.7-14.26-12.58-2.6-8.64-4.88-17.44-8.28-25.77-5.62-13.77-13.58-26.33-26.11-34.7-6.51-4.35-14.38-7.03-21.98-9.3-7.76-2.32-12.02-6.89-10.75-13.94,1.17-6.47,6.78-9.88,14.51-8.72,18.85,2.83,34.13,12.41,45.71,26.94,8.9,11.16,15.88,23.85,23.08,34.89Z"/>
  <path class="cls-1" d="M334.82,329.67c-15.31.05-27.6-12.05-27.68-27.24-.08-15.12,12.23-27.5,27.41-27.58,15.27-.08,27.51,12.02,27.6,27.3.09,15.28-12.01,27.47-27.33,27.53Z"/>
  <path class="cls-1" d="M226.6,172.56c0-7.6-.14-15.2.03-22.79.23-9.89,6.25-13.33,14.53-8.2,12.29,7.6,24.5,15.33,36.6,23.23,7.6,4.96,7.5,11.01-.18,16.06-12.08,7.94-24.22,15.77-36.45,23.46-8.22,5.16-14.26,1.71-14.49-8.22-.19-7.84-.04-15.68-.04-23.53Z"/>
</svg>