<?xml version="1.0" encoding="UTF-8"?>
<svg id="Layer_1" data-name="Layer 1" xmlns="http://www.w3.org/2000/svg" viewBox="0 0 500 500">
  <defs>
    <style>
      .cls-1 {
        stroke-width: 0px;
      }
    </style>
  </defs>
  <path class="cls-1" d="M429.06,255.09c-7.11-9.17-16.29-15.16-27.3-17.82-16.89-4.08-32.19-.21-46.77,11.83l-4.91,4.05v-12.25c-.02-4.11.01-8.28.04-12.32.07-8.95.15-18.2-.37-27.21-1.2-20.88-17.87-37.49-38.78-38.65-8.85-.49-17.91-.49-26.67-.49-4,0-7.99,0-11.98-.05-1.1-.01-2.2,0-3.61,0h-8.88l3.99-4.89c9.67-11.86,13.91-24.24,12.97-37.83-.98-14.02-6.97-25.81-17.83-35.06-18.14-15.45-44.22-16.03-63.42-1.4-9.27,7.06-15.35,16.19-18.05,27.13-4.24,17.13-.43,32.55,11.65,47.14l4.07,4.91h-9.03c-1.43-.01-2.55-.01-3.68,0-5.71.05-11.51.04-17.12.04-12.64-.03-25.7-.05-38.47.62-21.87,1.13-38.95,19.62-38.88,42.08.02,6.26-.01,12.52-.03,18.78-.04,10.51-.09,21.37.09,32.04.08,4.41.95,8.75,2.46,12.23,2.32,5.33,6.62,8.99,11.8,10.04,5.27,1.07,10.77-.67,15.08-4.77,1.51-1.44,2.85-3.11,4.28-4.87.43-.54.86-1.08,1.3-1.61,5.53-6.69,13.24-10.71,21.72-11.32,8.47-.61,16.68,2.28,23.09,8.12,6.26,5.69,9.89,13.85,9.98,22.37.09,8.53-3.39,16.76-9.53,22.58-6.3,5.97-14.45,9.01-22.95,8.57-8.5-.45-16.27-4.33-21.91-10.92-.74-.87-1.43-1.76-2.09-2.63-.7-.91-1.36-1.77-2.07-2.57-3.62-4.17-8.33-6.46-13.16-6.46-.64,0-1.29.04-1.94.12-5.26.68-9.79,4.11-12.44,9.43-2.09,4.22-3.36,9.68-3.47,14.99-.29,14.23-.25,28.73-.21,42.76.02,6.54.04,13.09.02,19.63-.02,13.36,4.2,24.67,12.22,32.71,8.04,8.06,19.39,12.32,32.82,12.32,57.99,0,115.99.01,173.98,0,27.31-.01,44.99-17.73,45.04-45.15.02-11.25.02-22.5.01-33.75v-28.05l4.92,4.09c11.71,9.73,24.09,13.99,37.85,13.06,13.98-.96,25.78-6.95,35.06-17.81,15.59-18.26,16.05-44.47,1.11-63.76ZM409.85,309.25c-6.41,5.77-14.6,8.55-23.08,7.81-8.65-.74-16.45-5.02-21.97-12.04l-.8-1.04c-1.26-1.62-2.46-3.16-3.8-4.46-3.62-3.53-8.07-5.29-12.52-5.01-4.49.3-8.71,2.68-11.88,6.71-3.6,4.57-5.36,10.24-5.36,17.35v9.61c0,17.62,0,35.24-.01,52.86-.02,16.82-8.92,25.71-25.76,25.71h-173.58c-8.25,0-14.59-2.17-18.85-6.44-4.3-4.3-6.47-10.74-6.45-19.13.01-10.02.01-20.05.01-30.07v-20.35c0-.85.05-1.68.1-2.64.03-.47.06-1,.09-1.58l.27-5.78,4.57,3.55c27.34,21.24,58.25,12.69,73.45-6.14,14.94-18.52,14.66-46.27-.65-64.55-12.18-14.56-42.69-28.85-72.69-5.22l-4.48,3.53-.37-5.7c-.04-.53-.08-1.04-.12-1.53-.08-1.06-.16-2.07-.16-3.12-.01-5.05-.01-10.1-.01-15.15,0-6.7,0-13.4-.02-20.1-.05-14.79,9.1-24.14,23.9-24.39,10.58-.18,21.33-.16,31.73-.14h5.36c5.85.02,11.79.07,17.53.13,3.83.03,7.66.07,11.48.09,7.14.06,12.42-1.65,16.65-5.35,7.32-6.39,8.05-15.91,1.76-23.16-1.78-2.05-3.97-3.83-6.29-5.71l-.6-.48c-7.01-5.69-11.18-13.67-11.74-22.45-.55-8.57,2.44-16.75,8.43-23.03,5.92-6.23,13.88-9.65,22.41-9.65h.17c8.57.04,16.51,3.54,22.38,9.83,5.96,6.4,8.89,14.64,8.25,23.19-.66,8.71-4.92,16.61-12,22.23-.41.33-.82.65-1.24.97-1.44,1.12-2.8,2.19-3.99,3.37-3.77,3.75-5.67,8.36-5.35,12.97.33,4.66,2.89,9.01,7.22,12.25,4.46,3.34,9.74,4.89,16.64,4.89h1.93c14.54-.01,29.08-.02,43.63,0,17.51.03,26.39,8.85,26.38,26.2,0,10.48-.05,20.95-.09,31.42-.03,5.44-.05,10.89-.07,16.33-.03,7.75,2.04,13.38,6.52,17.73,6.39,6.2,15.14,6.51,21.76.77,2.31-2.01,4.38-4.57,6.39-7.05l.12-.14c5.56-6.87,13.71-11.12,22.35-11.67,8.63-.56,16.85,2.45,23.16,8.47,6.29,5.99,9.69,14.07,9.56,22.74-.12,8.58-3.87,16.8-10.27,22.55Z"/>
</svg>