<?xml version="1.0" encoding="UTF-8"?>
<svg id="Layer_1" data-name="Layer 1" xmlns="http://www.w3.org/2000/svg" viewBox="0 0 500 500">
  <defs>
    <style>
      .cls-1 {
        fill: #fff;
        stroke-width: 0px;
      }
    </style>
  </defs>
  <path class="cls-1" d="M124.99,383.97c-1.1,0-2.05-.25-2.83-.73l-.08-.06c-.17-.11-.32-.22-.46-.34-.1-.09-.15-.15-.21-.2l-.14-.14c-.05-.05-.1-.1-.15-.16-.15-.17-.25-.33-.35-.48l-.1-.15c-.79-1.34-.88-3.18-.29-5.33,6.53-23.45,13.3-46.5,19.05-65.95.4-1.34,1.81-2.87,3-4.06,67.19-67.24,134.23-134.25,197.14-197.12,3.71-3.71,6-5.3,7.64-5.3s3.85,1.53,7.46,5.12c6.28,6.25,12.55,12.5,18.82,18.77l2.6,2.6c6.27,6.27,12.53,12.55,18.79,18.84,6.88,6.92,6.87,8.05-.18,15.1-59.69,59.73-129.08,129.15-197.12,197.14-1.19,1.19-2.73,2.6-4.06,3-19.43,5.75-42.47,12.51-65.95,19.05-.92.26-1.79.39-2.59.39ZM136.85,367.12l40.4-11.71-13.67-14.99-15.01-13.69-11.71,40.4ZM174.63,331.75l16.1,16.38,169.12-169.09-18.78-18.76-16.14-16.16-169.09,169.12,18.05,17.74.74.77ZM334.39,133.98l17.6,17.72,18,17.89,13.28-13.27-18.42-18.29-.75-.76-16.44-16.56-13.27,13.28Z"/>
  <g>
    <path class="cls-1" d="M331.7,397.02c-.38-.5-.71-1.04-1.15-1.48-24.99-25-49.98-50-74.98-74.98-.34-.34-.78-.6-1.01-.77,3.54-3.51,6.91-6.84,10.42-10.32,2.54,2.55,5.39,5.43,8.23,8.29,10.86-10.83,21.64-21.59,32.31-32.22,3.42,3.45,6.74,6.8,10.05,10.14-10.55,10.54-21.32,21.3-31.93,31.89,6.65,6.65,13.11,13.11,19.54,19.53,10.5-10.5,21.3-21.3,32.03-32.04,3.53,3.57,6.86,6.95,10.29,10.41-10.64,10.64-21.44,21.43-32.12,32.11,6.31,6.32,12.54,12.55,18.83,18.85.29-.28.69-.63,1.07-1,15.98-15.99,31.97-31.98,47.94-47.98,9.39-9.41,9.37-22.58-.03-31.98-16.71-16.72-33.42-33.44-50.14-50.15-.42-.42-.97-.71-1.34-.97,3.6-3.58,6.94-6.89,10.35-10.28.21.18.54.44.83.73,17.02,17.02,34.06,34.03,51.06,51.07,7.34,7.36,10.93,16.31,10.65,26.69-.24,9.14-3.5,17.17-9.89,23.74-8.02,8.23-16.21,16.29-24.34,24.42-11.65,11.66-23.31,23.31-34.95,34.97-.4.4-.7.9-1.05,1.36h-.65Z"/>
    <path class="cls-1" d="M105.96,172.31c.53-.42,1.12-.8,1.59-1.27,19.3-19.27,38.6-38.53,57.86-57.83,7.47-7.48,16.4-11.37,26.98-11.13,9.83.22,18.15,4.02,25.09,10.99,12.85,12.91,25.75,25.78,38.62,38.66,4.02,4.03,8.05,8.05,12.07,12.08.41.41.8.85,1.09,1.15-3.39,3.41-6.71,6.74-10.23,10.29-1.35-1.42-2.8-3.02-4.32-4.54-15.71-15.73-31.42-31.45-47.15-47.16-7.1-7.1-16.36-9.11-24.83-5.16-2.31,1.08-4.58,2.58-6.38,4.37-16.53,16.37-32.95,32.84-49.4,49.28-.15.15-.29.32-.29.32,6.83,6.83,13.63,13.63,20.53,20.52,10.56-10.56,21.34-21.35,32.02-32.03,3.45,3.46,6.76,6.78,10.08,10.1-10.59,10.59-21.39,21.38-32.04,32.03,6.64,6.63,13.06,13.06,19.47,19.47,10.56-10.56,21.34-21.35,31.98-31.99,3.56,3.56,6.88,6.87,10.11,10.1-10.55,10.55-21.34,21.34-32.08,32.07,2.71,2.69,5.11,5.08,7.44,7.39-3.63,3.6-7,6.92-10.51,10.4-25.79-25.81-51.76-51.8-77.73-77.79,0-.11,0-.22,0-.33Z"/>
  </g>
</svg>