<?xml version="1.0" encoding="UTF-8"?>
<svg id="Layer_1" data-name="Layer 1" xmlns="http://www.w3.org/2000/svg" viewBox="0 0 500 500">
  <defs>
    <style>
      .cls-1 {
        stroke-width: 0px;
      }
    </style>
  </defs>
  <path class="cls-1" d="M258.38,418.11c0,6.75.08,13.51-.02,20.26-.09,6.37-3.01,9.51-8.54,9.52-5.62,0-8.48-3.09-8.5-9.47-.05-13.67-.05-27.33,0-41,.02-5.64,3.36-9.41,8.21-9.56,5.03-.16,8.72,3.67,8.82,9.51.13,6.91.03,13.82.03,20.74Z"/>
  <path class="cls-1" d="M377.17,156.7c-1.78,3.11-2.62,5.57-4.26,7.25-9.22,9.46-18.58,18.79-27.99,28.06-4.02,3.96-9.18,4.08-12.61.6-3.46-3.51-3.34-8.62.6-12.62,9.27-9.41,18.62-18.72,27.99-28.02,2.75-2.73,6.23-4.48,9.77-2.28,2.51,1.56,4.2,4.44,6.5,7.01Z"/>
  <path class="cls-1" d="M258.4,129.9c0,6.28.06,12.57-.01,18.85-.08,6.21-3.63,10.24-8.77,10.11-5.03-.12-8.3-3.96-8.32-9.98-.04-12.88-.05-25.77,0-38.65.02-5.57,3.42-9.46,8.19-9.64,4.92-.19,8.76,3.79,8.87,9.52.13,6.6.03,13.2.03,19.8Z"/>
  <path class="cls-1" d="M106.7,281.88c-6.46,0-12.92.08-19.37-.02-6.18-.1-9.77-3.32-9.78-8.51,0-5.2,3.63-8.47,9.75-8.5,12.91-.07,25.83-.07,38.74,0,5.77.03,9.45,3.31,9.61,8.24.17,5.05-3.64,8.65-9.58,8.77-6.45.13-12.91.03-19.37.03Z"/>
  <path class="cls-1" d="M393.64,281.88c-6.45,0-12.9.1-19.34-.03-6.04-.12-9.65-3.53-9.52-8.72.12-5.04,3.64-8.25,9.46-8.29,13.05-.08,26.1-.09,39.16,0,5.98.04,9.06,3.06,9.07,8.45,0,5.48-2.91,8.39-9,8.54-6.6.16-13.21.04-19.81.04Z"/>
  <path class="cls-1" d="M134.3,400.01c-2.6-2.1-5.36-3.61-7.09-5.9-2.24-2.96-1.42-6.42.94-9.13,2.68-3.07,5.68-5.87,8.57-8.76,6.66-6.68,13.31-13.36,20.01-19.99,4.35-4.3,9.27-4.72,12.95-1.24,3.84,3.62,3.54,8.74-.96,13.27-8.96,9.05-17.93,18.09-27.06,26.98-1.81,1.77-4.32,2.83-7.36,4.76Z"/>
  <path class="cls-1" d="M133.77,147.68c3.07,1.74,5.56,2.56,7.25,4.2,9.58,9.33,19.02,18.8,28.4,28.33,3.81,3.88,3.88,8.72.53,12.26-3.37,3.57-8.64,3.56-12.61-.35-9.53-9.38-18.97-18.87-28.39-28.37-2.62-2.64-4.2-6.02-2.1-9.38,1.59-2.54,4.39-4.33,6.9-6.7Z"/>
  <path class="cls-1" d="M377.22,390.89c-2.25,2.63-3.76,5.9-6.17,6.83-2.47.95-6.85.7-8.61-.94-10.55-9.86-20.7-20.15-30.72-30.56-3.05-3.17-2.37-8.12.65-11.12,2.87-2.85,7.38-3.33,10.8-.82,2.01,1.47,3.7,3.39,5.48,5.16,7.9,7.87,15.87,15.69,23.62,23.71,1.85,1.91,2.95,4.54,4.96,7.73Z"/>
  <path class="cls-1" d="M251.32,173.67c-54.8-.18-99.55,44.36-99.8,99.3-.24,54.77,44.44,99.7,99.26,99.81,54.77.11,99.52-44.21,99.74-98.81.23-55.31-44.09-100.12-99.21-100.3ZM248.61,355.44c-40.39.27-81.11-34.43-80.84-82.64.26-48.35,41.51-82.17,80.84-81.71v164.35Z"/>
</svg>