<?xml version="1.0" encoding="UTF-8"?>
<svg id="Layer_1" data-name="Layer 1" xmlns="http://www.w3.org/2000/svg" viewBox="0 0 500 500">
  <defs>
    <style>
      .cls-1 {
        stroke-width: 0px;
      }
    </style>
  </defs>
  <path class="cls-1" d="M156.61,311.99v-28.1c-11.86,0-23.24,0-34.62,0-7.03,0-14.07.14-21.09-.07-6.99-.21-11.35-4.36-11.26-10.24.1-5.92,4.54-9.99,11.51-10.03,18.22-.11,36.43-.04,55.14-.04v-28.79c-4.88-.37-9.87-.48-14.78-1.16-25.04-3.49-43.03-23.25-43.77-48.37-.37-12.51-.19-25.05-.07-37.57.07-6.95,4.16-11.52,9.96-11.7,5.97-.19,10.38,4.54,10.5,11.84.18,10.98.4,21.99-.01,32.96-.74,19.59,12.39,35.6,38.5,32.76,1.45-.16,3.49-1.93,3.91-3.35,7.97-27.31,24.74-47.58,49.75-62.16-1.91-1.43-3.41-2.57-4.93-3.67-17.87-12.98-27.17-30.6-28.27-52.57-.32-6.46,3.5-11.05,9.21-11.55,6.08-.53,9.94,3.54,11.35,10.3,1.64,7.83,2.87,16.19,6.63,23.04,7.83,14.25,20.83,21.69,37.24,22.17,11.41.33,22.86.34,34.27-.01,23.14-.71,41.69-19.25,43.58-42.34.33-4.09,2.67-8.75,5.59-11.6,1.69-1.66,7.49-1.56,9.47.1,2.74,2.3,5.18,6.87,5.05,10.36-.83,22.25-10.6,39.92-28.96,52.72-1.21.85-2.31,1.85-3.93,3.16,13.93,7.99,26.06,17.55,34.33,30.75,5.77,9.21,10.36,19.26,14.48,29.35,1.75,4.28,3.44,5.61,7.87,5.59,18.63-.1,30.15-7.11,34.11-21.75,1.01-3.75,1.13-7.81,1.19-11.73.16-10.76-.06-21.53.11-32.3.11-7.39,4.32-12.08,10.3-12.04,6.01.04,10.12,4.78,10.18,12.15.1,11.86.18,23.73,0,35.6-.45,28.15-21.31,49.35-49.53,50.51-2.84.12-5.69.02-9.06.02v29.32c2.16,0,4.47,0,6.78,0,15.82,0,31.64-.04,47.46.02,7.61.03,12.16,3.74,12.39,9.83.24,6.27-4.46,10.44-12.35,10.5-15.6.12-31.2.04-46.8.04-2.38,0-4.75,0-7.72,0v28.13c3.17,0,6.4-.08,9.63.01,27.12.8,48.26,21.59,49.12,48.66.4,12.51.19,25.05.07,37.57-.07,7.16-3.87,11.45-9.86,11.66-6.27.22-10.47-4.11-10.6-11.59-.2-10.98,0-21.97-.08-32.96-.15-21.26-11.96-32.71-33.04-33.38-8.03-.25-11.71,2.13-15.44,9.7-18.91,38.38-50.53,59.01-93.23,58.32-43.26-.7-74.17-22.73-92.08-62.25-1.97-4.35-4.07-6.15-8.69-5.65-4.57.5-9.28.06-13.77.88-13.52,2.46-23.18,13.21-23.81,26.89-.53,11.4-.24,22.84-.33,34.27-.02,2.19.11,4.43-.23,6.57-.92,5.72-4.22,9.21-10.2,9.14-6-.07-9.8-3.74-9.9-9.4-.28-14.92-1.13-30.01.58-44.76,3.02-26.02,23.34-43.14,49.53-43.71,2.81-.06,5.62,0,8.63,0ZM247.68,378.69v-144.07h-71.74c1.17,28-.02,55.86,4.06,82.93,4.92,32.61,36.32,58.77,67.68,61.13ZM269.06,378.91c33.54-4.26,63.17-29.12,67.82-61.83,3.8-26.71,1.95-54.21,2.57-81.37,0-.33-.5-.67-.78-1.01h-69.61v144.2ZM335.25,213.4c-6.2-33.4-45.14-59.34-84.36-56.7-31.43,2.12-67.58,31.79-68.84,56.7h153.2Z"/>
</svg>