<?xml version="1.0" encoding="UTF-8"?>
<svg id="Layer_1" data-name="Layer 1" xmlns="http://www.w3.org/2000/svg" viewBox="0 0 500 500">
  <defs>
    <style>
      .cls-1 {
        stroke-width: 0px;
      }
    </style>
  </defs>
  <path class="cls-1" d="M367.11,118.79c-12.86,6.27-25.48,11.57-37.18,18.44-7.97,4.68-15.1,6.45-24.28,4.14-29.14-7.31-58.51-6.96-87.65.21-8,1.97-14.41.67-21.59-3.47-10.98-6.33-22.89-11.05-34.45-16.34-1.46-.67-3.25-.64-5.34-1.02-3.91,12.72-4.12,25.11-.03,37.26,2.73,8.08,1.63,14.3-4.12,20.82-18.26,20.7-19.31,45.58-14.97,70.99,6.82,39.89,28.56,60.75,70.23,68.78,5.55,1.07,11.17,1.78,16.69,2.97,9.36,2.01,13.55,11.28,7.3,18.48-11.21,12.92-12.18,27.76-11.41,43.6.52,10.79.05,21.64-.36,32.45-.29,7.58-4.66,11.83-11.33,11.89-6.81.06-11.23-4.63-11.56-12.53-.18-4.39-.03-8.8-.03-13.83-6.78.48-13.02,1.17-19.27,1.34-41.63,1.13-71.39-24.71-87.49-58.97-2.52-5.37.18-12.12,5.49-14.33,5.86-2.44,11.16-1.41,14.88,4.19,4.61,6.95,8.63,14.34,13.73,20.9,16.77,21.56,39.3,28.06,65.6,24.07,5.08-.77,7.09-2.92,7.41-8.58.54-9.65,2.65-19.2,4.16-29.17-16.32-3.78-33.19-9.45-48.06-20.08-23.58-16.85-34.77-40.86-38.97-68.48-3.42-22.55-3.95-45.15,5.99-66.61,1.96-4.23,3.65-8.94,6.77-12.18,6.3-6.56,5.78-13.42,4.25-21.56-2.98-15.82-.47-31.33,5.66-46.18,2.68-6.49,8.04-8.99,14.78-8.92,14.15.15,27.47,4.35,39.14,11.62,13.24,8.25,25.79,9.97,41.34,6.83,25.22-5.09,50.92-2.88,76.24,2.35,3.36.69,7.77-.09,10.75-1.82,14.33-8.3,28.99-15.56,45.48-18.39,14.94-2.56,21.01.97,25.4,15.2,4.65,15.07,5.52,30.32,2.13,45.86-.63,2.88-.12,6.96,1.55,9.24,11.26,15.33,17.67,32.45,18.25,51.3.94,30.55-3.5,59.94-23.13,84.96-15.11,19.25-35.85,29.22-59.01,35.03-2.61.65-5.24,1.24-8.31,1.97,7.03,14.95,6.05,30.72,6.11,46.36.03,9.35.18,18.71-.17,28.05-.3,7.97-4.88,12.55-11.63,12.49-6.5-.06-11.14-5.2-11.21-12.93-.13-14.27-.21-28.55.01-42.82.18-11.8-3.17-22.12-10.74-31.29-7.37-8.93-4.03-17.66,7.29-20.1,10.56-2.27,21.3-3.92,31.66-6.86,33.27-9.44,49.8-33.1,54.56-66.13,2.15-14.92,3.54-30.1-1.87-44.51-3.22-8.58-7.85-16.92-13.32-24.28-4.86-6.53-6.93-12.27-4.35-20.29,4.02-12.57,4.75-25.4-1.03-40.11Z"/>
</svg>