<?xml version="1.0" encoding="UTF-8"?>
<svg id="Layer_1" data-name="Layer 1" xmlns="http://www.w3.org/2000/svg" viewBox="0 0 500 500">
  <defs>
    <style>
      .cls-1 {
        fill: #fff;
        stroke-width: 0px;
      }
    </style>
  </defs>
  <path class="cls-1" d="M262.93,102.28c38.08,0,76.15,0,114.23,0,28.48,0,47.59,19.08,47.59,47.54.01,76.29.01,152.59,0,228.88,0,28.4-19.16,47.49-47.65,47.49-76.29,0-152.59.01-228.88,0-28.16,0-47.37-19.2-47.37-47.34-.01-76.43-.02-152.87,0-229.3,0-28.13,19.21-47.25,47.43-47.27,38.22-.02,76.43,0,114.65,0ZM262.82,192.28c46.37,0,92.73-.05,139.1.09,3.93.01,4.96-1.11,4.89-4.94-.23-12.78-.03-25.57-.1-38.36-.1-17.43-11.38-28.72-28.86-28.73-76.72-.04-153.43-.04-230.15,0-17.46.01-28.72,11.33-28.81,28.78-.07,12.79.14,25.57-.11,38.36-.08,3.92,1.1,4.9,4.94,4.89,46.37-.13,92.73-.08,139.1-.08ZM209.22,210.55v89.5c1.1.06,2.06.17,3.02.17,63.5,0,127-.01,190.5.07,3.17,0,4.05-.93,4.04-4.06-.11-27.39-.06-54.79-.07-82.19,0-1.09-.14-2.19-.23-3.49h-197.25ZM208.97,407.96c1.75.08,3.12.19,4.5.19,54.52,0,109.03.02,163.55,0,18.53,0,29.66-11.12,29.69-29.62.03-18.55,0-37.09,0-55.64v-4.29h-197.74v89.36ZM119.05,210.47c-.07,1.49-.18,2.59-.18,3.69,0,55.09-.04,110.19.01,165.28.02,17.41,11.39,28.62,28.9,28.7,12.65.06,25.3-.15,37.95.11,4.01.08,5.19-.97,5.18-5.09-.13-62.68-.09-125.37-.09-188.05v-4.65h-71.78Z"/>
</svg>