<?xml version="1.0" encoding="UTF-8"?>
<svg id="Layer_1" data-name="Layer 1" xmlns="http://www.w3.org/2000/svg" viewBox="0 0 1413.04 500">
  <defs>
    <style>
      .cls-1 {
        fill: #fff;
      }

      .cls-1, .cls-2 {
        stroke-width: 0px;
      }

      .cls-2 {
        fill: #0074cc;
      }
    </style>
  </defs>
  <g>
    <path class="cls-1" d="M249.75,372.69c-17.24,0-34.59-2.05-51.48-6.25-38.29-9.54-70.64-31.84-88.76-61.19-18.67-30.24-21.07-66.49-6.43-96.97,14.67-30.54,43.27-50.53,78.48-54.85,3.61-.44,7.29-.74,10.93-.88,1.31-.05,2.47-.86,2.83-1.96,12.65-39.41,55.84-71.48,96.27-71.48,44.86,0,88.96,24.1,115.07,62.9,29.84,44.32,31.12,99.35,3.44,147.19-10.23,17.68-24.02,33.09-40.98,45.8h0c-32.77,24.56-75.7,37.71-119.36,37.71ZM291.58,106.31c-28.49,0-61.36,24.57-70.36,52.58-3.84,11.97-14.97,20.35-27.68,20.84-2.89.11-5.8.35-8.66.7-25.82,3.17-46.69,17.62-57.26,39.63-10.76,22.41-8.92,48.26,5.06,70.9,14.42,23.36,40.73,41.25,72.19,49.08,51.13,12.74,109.2,2.2,147.94-26.83,14.01-10.5,25.36-23.17,33.74-37.65,22.35-38.63,21.43-82.87-2.46-118.36-21.13-31.39-56.57-50.88-92.5-50.88ZM360.95,324.09h.02-.02Z"/>
    <path class="cls-2" d="M355.06,388.49c0,7.13-6.22,12.91-13.35,12.91h-16.51c-19.13,0-36.08-12.44-36.08-36.52v-31.58l-15.13-24.04c-3.13-4.47-3.13-10.69,0-15.6l15.13-24.51v-32.64c0-24.04,16.94-36.52,36.08-36.52h16.51c7.13,0,13.35,5.78,13.35,12.91,0,8-6.22,13.82-13.35,13.82h-6.69c-9.35,0-15.6,5.78-15.6,15.13v25.51c0,2.69-.44,5.35-2.22,7.13l-16.91,27.17,16.91,26.29c1.78,1.78,2.22,4.44,2.22,7.13v24.45c0,9.35,6.25,15.16,15.6,15.16h6.69c7.13,0,13.35,5.78,13.35,13.79Z"/>
    <path class="cls-2" d="M466.29,309.27l-15.16,24.04v31.58c0,24.07-16.91,36.52-36.08,36.52h-16.48c-7.13,0-13.35-5.78-13.35-12.91,0-8,6.22-13.79,13.35-13.79h6.69c9.35,0,15.6-5.81,15.6-15.16v-24.45c0-2.69.44-5.35,2.22-7.13l16.91-26.29-16.91-27.17c-1.78-1.78-2.22-4.44-2.22-7.13v-25.51c0-9.35-6.25-15.13-15.6-15.13h-6.69c-7.13,0-13.35-5.81-13.35-13.82,0-7.13,6.22-12.91,13.35-12.91h16.48c19.16,0,36.08,12.47,36.08,36.52v32.64l15.16,24.51c3.1,4.91,3.1,11.13,0,15.6Z"/>
    <path class="cls-1" d="M184.81,246.45H29.62c-7.51,0-13.61-6.09-13.61-13.61s6.09-13.61,13.61-13.61h155.19c7.51,0,13.61,6.09,13.61,13.61s-6.09,13.61-13.61,13.61Z"/>
    <path class="cls-1" d="M209.43,303.62H54.24c-7.51,0-13.61-6.09-13.61-13.61s6.09-13.61,13.61-13.61h155.19c7.51,0,13.61,6.09,13.61,13.61s-6.09,13.61-13.61,13.61Z"/>
  </g>
  <g>
    <path class="cls-1" d="M546.11,326.1h-29.87v-128.28h29.87v128.28ZM606.4,273.5h-62.67v-25.11h62.67v25.11ZM604.2,197.82h29.69v128.28h-29.69v-128.28Z"/>
    <path class="cls-1" d="M647.45,326.1l56.99-128.28h29.32l57.54,128.28h-31.15l-47.1-113.25h11.91l-47.1,113.25h-30.42ZM676.22,298.61l7.51-22.54h66.34l7.7,22.54h-81.55Z"/>
    <path class="cls-1" d="M796.44,326.1v-19.24l79.35-95.66,3.67,10.81h-81.55v-24.19h107.94v19.24l-79.17,95.66-3.67-10.81h85.58v24.19h-112.16Z"/>
    <path class="cls-1" d="M957.16,302.27h69.82v23.82h-99.33v-128.28h96.94v23.82h-67.44v80.63ZM954.96,249.31h61.76v23.27h-61.76v-23.27Z"/>
    <path class="cls-2" d="M1112.01,328.3c-9.9,0-19.09-1.62-27.58-4.86-8.49-3.24-15.85-7.85-22.08-13.84-6.23-5.98-11.09-13.01-14.57-21.08s-5.22-16.92-5.22-26.57,1.74-18.51,5.22-26.57,8.37-15.09,14.66-21.08c6.29-5.98,13.68-10.6,22.17-13.84,8.49-3.24,17.68-4.86,27.58-4.86,11.12,0,21.19,1.92,30.24,5.77,9.04,3.85,16.61,9.5,22.72,16.95l-19.24,17.59c-4.28-5.01-9.13-8.8-14.57-11.36-5.44-2.57-11.33-3.85-17.68-3.85-5.99,0-11.49,1.01-16.49,3.02-5.01,2.02-9.35,4.86-13.01,8.52-3.67,3.67-6.51,8-8.52,13.01-2.02,5.01-3.02,10.57-3.02,16.68s1.01,11.67,3.02,16.68c2.02,5.01,4.86,9.35,8.52,13.01,3.67,3.67,8,6.51,13.01,8.52,5.01,2.02,10.51,3.02,16.49,3.02,6.35,0,12.25-1.31,17.68-3.94,5.44-2.63,10.29-6.44,14.57-11.45l19.24,17.59c-6.11,7.45-13.68,13.13-22.72,17.04-9.04,3.91-19.18,5.86-30.42,5.86Z"/>
    <path class="cls-2" d="M1227.28,328.3c-10.26,0-20.13-1.38-29.6-4.12-9.47-2.75-17.07-6.32-22.82-10.72l10.08-22.36c5.38,3.91,11.85,7.12,19.43,9.62,7.57,2.51,15.21,3.76,22.91,3.76,5.86,0,10.6-.61,14.2-1.83,3.6-1.22,6.26-2.84,7.97-4.86,1.71-2.02,2.57-4.37,2.57-7.06,0-3.42-1.35-6.14-4.03-8.16-2.69-2.02-6.26-3.67-10.72-4.95-4.46-1.28-9.32-2.5-14.57-3.67-5.25-1.16-10.54-2.57-15.85-4.21-5.31-1.65-10.2-3.85-14.66-6.6-4.46-2.75-8-6.35-10.63-10.81-2.63-4.46-3.94-10.05-3.94-16.77,0-7.33,1.95-14.02,5.86-20.07,3.91-6.05,9.86-10.87,17.87-14.48,8-3.6,18.05-5.41,30.15-5.41,8.06,0,16.04.98,23.92,2.93,7.88,1.96,14.75,4.76,20.62,8.43l-9.35,22.36c-5.74-3.3-11.67-5.77-17.78-7.42-6.11-1.65-11.98-2.47-17.59-2.47s-10.57.64-14.11,1.92c-3.54,1.28-6.14,3.02-7.79,5.22-1.65,2.2-2.47,4.64-2.47,7.33,0,3.42,1.34,6.17,4.03,8.25,2.69,2.08,6.23,3.7,10.63,4.86,4.4,1.16,9.28,2.32,14.66,3.48,5.37,1.16,10.69,2.6,15.94,4.31,5.25,1.71,10.08,3.88,14.48,6.51,4.4,2.63,7.97,6.17,10.72,10.63,2.75,4.46,4.12,9.99,4.12,16.58,0,7.21-1.99,13.81-5.96,19.79-3.97,5.99-9.99,10.81-18.05,14.48s-18.14,5.5-30.24,5.5Z"/>
    <path class="cls-2" d="M1344.2,328.3c-10.26,0-20.13-1.38-29.6-4.12-9.47-2.75-17.07-6.32-22.82-10.72l10.08-22.36c5.38,3.91,11.85,7.12,19.43,9.62,7.57,2.51,15.21,3.76,22.91,3.76,5.86,0,10.6-.61,14.2-1.83,3.6-1.22,6.26-2.84,7.97-4.86,1.71-2.02,2.57-4.37,2.57-7.06,0-3.42-1.35-6.14-4.03-8.16-2.69-2.02-6.26-3.67-10.72-4.95-4.46-1.28-9.32-2.5-14.57-3.67-5.25-1.16-10.54-2.57-15.85-4.21-5.31-1.65-10.2-3.85-14.66-6.6-4.46-2.75-8-6.35-10.63-10.81-2.63-4.46-3.94-10.05-3.94-16.77,0-7.33,1.95-14.02,5.86-20.07,3.91-6.05,9.86-10.87,17.87-14.48,8-3.6,18.05-5.41,30.15-5.41,8.06,0,16.04.98,23.92,2.93,7.88,1.96,14.75,4.76,20.62,8.43l-9.35,22.36c-5.74-3.3-11.67-5.77-17.78-7.42-6.11-1.65-11.98-2.47-17.59-2.47s-10.57.64-14.11,1.92c-3.54,1.28-6.14,3.02-7.79,5.22-1.65,2.2-2.47,4.64-2.47,7.33,0,3.42,1.34,6.17,4.03,8.25,2.69,2.08,6.23,3.7,10.63,4.86,4.4,1.16,9.28,2.32,14.66,3.48,5.37,1.16,10.69,2.6,15.94,4.31,5.25,1.71,10.08,3.88,14.48,6.51,4.4,2.63,7.97,6.17,10.72,10.63,2.75,4.46,4.12,9.99,4.12,16.58,0,7.21-1.99,13.81-5.96,19.79-3.97,5.99-9.99,10.81-18.05,14.48s-18.14,5.5-30.24,5.5Z"/>
  </g>
</svg>