<?xml version="1.0" encoding="UTF-8"?>
<svg id="Layer_1" data-name="Layer 1" xmlns="http://www.w3.org/2000/svg" viewBox="0 0 1413.04 500">
  <defs>
    <style>
      .cls-1 {
        fill: #262653;
      }

      .cls-1, .cls-2 {
        stroke-width: 0px;
      }

      .cls-2 {
        fill: #0074cc;
      }
    </style>
  </defs>
  <g>
    <path class="cls-1" d="M545.07,334.02h-29.54v-128.28h29.54v128.28ZM604.7,281.42h-61.98v-25.11h61.98v25.11ZM602.52,205.74h29.36v128.28h-29.36v-128.28Z"/>
    <path class="cls-1" d="M645.29,334.02l56.36-128.28h29l56.9,128.28h-30.81l-46.58-113.25h11.78l-46.57,113.25h-30.08ZM673.74,306.53l7.43-22.54h65.6l7.61,22.54h-80.65Z"/>
    <path class="cls-1" d="M792.63,334.02v-19.24l78.47-95.66,3.62,10.81h-80.65v-24.19h106.74v19.24l-78.29,95.66-3.62-10.81h84.63v24.19h-110.91Z"/>
    <path class="cls-1" d="M951.56,310.19h69.05v23.82h-98.22v-128.28h95.87v23.82h-66.69v80.63ZM949.38,257.23h61.07v23.27h-61.07v-23.27Z"/>
    <path class="cls-2" d="M1104.69,336.22c-9.79,0-18.88-1.62-27.27-4.86-8.4-3.24-15.68-7.85-21.84-13.84-6.16-5.98-10.96-13.01-14.41-21.08-3.44-8.06-5.17-16.92-5.17-26.57s1.72-18.51,5.17-26.57c3.44-8.06,8.27-15.09,14.5-21.08,6.22-5.98,13.53-10.6,21.93-13.84,8.4-3.24,17.49-4.86,27.27-4.86,10.99,0,20.96,1.92,29.9,5.77,8.94,3.85,16.43,9.5,22.47,16.95l-19.03,17.59c-4.23-5.01-9.03-8.8-14.41-11.36-5.38-2.57-11.21-3.85-17.49-3.85-5.92,0-11.36,1.01-16.31,3.02-4.96,2.02-9.24,4.86-12.87,8.52s-6.43,8-8.43,13.01c-1.99,5.01-2.99,10.57-2.99,16.68s1,11.67,2.99,16.68c1.99,5.01,4.8,9.35,8.43,13.01s7.91,6.51,12.87,8.52c4.95,2.02,10.39,3.02,16.31,3.02,6.28,0,12.11-1.31,17.49-3.94,5.37-2.63,10.18-6.44,14.41-11.45l19.03,17.59c-6.04,7.45-13.53,13.13-22.47,17.04-8.94,3.91-18.97,5.86-30.08,5.86Z"/>
    <path class="cls-2" d="M1218.68,336.22c-10.15,0-19.91-1.38-29.27-4.12-9.36-2.75-16.88-6.32-22.56-10.72l9.97-22.36c5.32,3.91,11.72,7.12,19.21,9.62,7.49,2.51,15.04,3.76,22.65,3.76,5.8,0,10.48-.61,14.04-1.83,3.56-1.22,6.19-2.84,7.88-4.86,1.69-2.02,2.54-4.37,2.54-7.06,0-3.42-1.33-6.14-3.99-8.16-2.66-2.02-6.19-3.67-10.6-4.95-4.41-1.28-9.21-2.5-14.41-3.67-5.2-1.16-10.42-2.57-15.68-4.21s-10.09-3.85-14.5-6.6c-4.41-2.75-7.91-6.35-10.51-10.81-2.6-4.46-3.9-10.05-3.9-16.77,0-7.33,1.93-14.02,5.8-20.07,3.87-6.05,9.76-10.87,17.67-14.48,7.91-3.6,17.85-5.41,29.81-5.41,7.97,0,15.86.98,23.65,2.93,7.79,1.96,14.59,4.76,20.39,8.43l-9.24,22.36c-5.68-3.3-11.54-5.77-17.58-7.42-6.04-1.65-11.84-2.47-17.4-2.47s-10.45.64-13.95,1.92c-3.51,1.28-6.07,3.02-7.7,5.22-1.63,2.2-2.45,4.64-2.45,7.33,0,3.42,1.33,6.17,3.99,8.25,2.66,2.08,6.16,3.7,10.51,4.86,4.35,1.16,9.18,2.32,14.5,3.48,5.32,1.16,10.57,2.6,15.77,4.31,5.19,1.71,9.97,3.88,14.32,6.51,4.35,2.63,7.88,6.17,10.6,10.63,2.72,4.46,4.08,9.99,4.08,16.58,0,7.21-1.97,13.81-5.89,19.79-3.93,5.99-9.88,10.81-17.85,14.48-7.97,3.67-17.94,5.5-29.9,5.5Z"/>
    <path class="cls-2" d="M1334.3,336.22c-10.15,0-19.91-1.38-29.27-4.12-9.36-2.75-16.88-6.32-22.56-10.72l9.97-22.36c5.32,3.91,11.72,7.12,19.21,9.62,7.49,2.51,15.04,3.76,22.65,3.76,5.8,0,10.48-.61,14.04-1.83,3.56-1.22,6.19-2.84,7.88-4.86,1.69-2.02,2.54-4.37,2.54-7.06,0-3.42-1.33-6.14-3.99-8.16-2.66-2.02-6.19-3.67-10.6-4.95-4.41-1.28-9.21-2.5-14.41-3.67-5.2-1.16-10.42-2.57-15.68-4.21s-10.09-3.85-14.5-6.6c-4.41-2.75-7.91-6.35-10.51-10.81-2.6-4.46-3.9-10.05-3.9-16.77,0-7.33,1.93-14.02,5.8-20.07,3.87-6.05,9.76-10.87,17.67-14.48,7.91-3.6,17.85-5.41,29.81-5.41,7.97,0,15.86.98,23.65,2.93,7.79,1.96,14.59,4.76,20.39,8.43l-9.24,22.36c-5.68-3.3-11.54-5.77-17.58-7.42-6.04-1.65-11.84-2.47-17.4-2.47s-10.45.64-13.95,1.92c-3.51,1.28-6.07,3.02-7.7,5.22-1.63,2.2-2.45,4.64-2.45,7.33,0,3.42,1.33,6.17,3.99,8.25,2.66,2.08,6.16,3.7,10.51,4.86,4.35,1.16,9.18,2.32,14.5,3.48,5.32,1.16,10.57,2.6,15.77,4.31,5.19,1.71,9.97,3.88,14.32,6.51,4.35,2.63,7.88,6.17,10.6,10.63,2.72,4.46,4.08,9.99,4.08,16.58,0,7.21-1.97,13.81-5.89,19.79-3.93,5.99-9.88,10.81-17.85,14.48-7.97,3.67-17.94,5.5-29.9,5.5Z"/>
  </g>
  <g>
    <path class="cls-1" d="M249.22,380.61c-17.24,0-34.59-2.05-51.48-6.25-38.29-9.54-70.64-31.84-88.76-61.19-18.67-30.24-21.07-66.49-6.43-96.97,14.67-30.54,43.27-50.53,78.48-54.85,3.61-.44,7.29-.74,10.93-.88,1.31-.05,2.47-.86,2.83-1.96,12.65-39.41,55.84-71.48,96.27-71.48,44.86,0,88.96,24.1,115.07,62.9,29.84,44.32,31.12,99.35,3.44,147.19-10.23,17.68-24.02,33.09-40.98,45.8h0c-32.77,24.56-75.7,37.71-119.36,37.71ZM291.04,114.22c-28.49,0-61.36,24.57-70.36,52.58-3.84,11.97-14.97,20.35-27.68,20.84-2.89.11-5.8.35-8.66.7-25.82,3.17-46.69,17.62-57.26,39.63-10.76,22.41-8.92,48.26,5.06,70.9,14.42,23.36,40.73,41.25,72.19,49.08,51.13,12.74,109.2,2.2,147.94-26.83,14.01-10.5,25.36-23.17,33.74-37.65,22.35-38.63,21.43-82.87-2.46-118.36-21.13-31.39-56.57-50.88-92.5-50.88ZM360.42,332.01h.02-.02Z"/>
    <path class="cls-1" d="M184.27,254.37H29.08c-7.51,0-13.61-6.09-13.61-13.61s6.09-13.61,13.61-13.61h155.19c7.51,0,13.61,6.09,13.61,13.61s-6.09,13.61-13.61,13.61Z"/>
    <path class="cls-1" d="M208.89,311.53H53.71c-7.51,0-13.61-6.09-13.61-13.61s6.09-13.61,13.61-13.61h155.19c7.51,0,13.61,6.09,13.61,13.61s-6.09,13.61-13.61,13.61Z"/>
    <path class="cls-2" d="M354.52,396.41c0,7.13-6.22,12.91-13.35,12.91h-16.51c-19.13,0-36.08-12.44-36.08-36.52v-31.58l-15.13-24.04c-3.13-4.47-3.13-10.69,0-15.6l15.13-24.51v-32.64c0-24.04,16.94-36.52,36.08-36.52h16.51c7.13,0,13.35,5.78,13.35,12.91,0,8-6.22,13.82-13.35,13.82h-6.69c-9.35,0-15.6,5.78-15.6,15.13v25.51c0,2.69-.44,5.35-2.22,7.13l-16.91,27.17,16.91,26.29c1.78,1.78,2.22,4.44,2.22,7.13v24.45c0,9.35,6.25,15.16,15.6,15.16h6.69c7.13,0,13.35,5.78,13.35,13.79Z"/>
    <path class="cls-2" d="M465.75,317.19l-15.16,24.04v31.58c0,24.07-16.91,36.52-36.08,36.52h-16.48c-7.13,0-13.35-5.78-13.35-12.91,0-8,6.22-13.79,13.35-13.79h6.69c9.35,0,15.6-5.81,15.6-15.16v-24.45c0-2.69.44-5.35,2.22-7.13l16.91-26.29-16.91-27.17c-1.78-1.78-2.22-4.44-2.22-7.13v-25.51c0-9.35-6.25-15.13-15.6-15.13h-6.69c-7.13,0-13.35-5.81-13.35-13.82,0-7.13,6.22-12.91,13.35-12.91h16.48c19.16,0,36.08,12.47,36.08,36.52v32.64l15.16,24.51c3.1,4.91,3.1,11.13,0,15.6Z"/>
  </g>
</svg>