<?xml version="1.0" encoding="UTF-8"?>
<svg id="Layer_1" data-name="Layer 1" xmlns="http://www.w3.org/2000/svg" viewBox="0 0 500 500">
  <defs>
    <style>
      .cls-1 {
        fill: #262653;
      }

      .cls-1, .cls-2 {
        stroke-width: 0px;
      }

      .cls-2 {
        fill: #0074cc;
      }
    </style>
  </defs>
  <path class="cls-1" d="M257.37,381.09c-17.06,0-34.24-2.03-50.95-6.19-37.9-9.44-69.93-31.52-87.86-60.57-18.48-29.93-20.86-65.81-6.37-95.99,14.52-30.23,42.83-50.02,77.68-54.3,3.57-.44,7.21-.73,10.81-.87,1.3-.05,2.45-.85,2.8-1.94,12.52-39.01,55.27-70.75,95.29-70.75,44.41,0,88.05,23.86,113.9,62.26,29.53,43.87,30.81,98.34,3.4,145.69-10.13,17.5-23.77,32.75-40.56,45.33h0c-32.44,24.31-74.93,37.33-118.15,37.33ZM298.77,117.41c-28.2,0-60.74,24.32-69.64,52.05-3.8,11.85-14.82,20.14-27.4,20.63-2.86.11-5.74.34-8.58.69-25.56,3.14-46.22,17.44-56.68,39.22-10.66,22.19-8.83,47.77,5.01,70.18,14.27,23.12,40.32,40.83,71.45,48.58,50.61,12.61,108.09,2.18,146.44-26.55,13.87-10.39,25.1-22.93,33.4-37.27,22.12-38.23,21.21-82.03-2.44-117.16-20.91-31.07-56-50.37-91.56-50.37ZM367.44,332.99h.02-.02Z"/>
  <path class="cls-1" d="M193.08,256.14H39.47c-7.44,0-13.47-6.03-13.47-13.47s6.03-13.47,13.47-13.47h153.61c7.44,0,13.47,6.03,13.47,13.47s-6.03,13.47-13.47,13.47Z"/>
  <path class="cls-1" d="M217.45,312.72H63.84c-7.44,0-13.47-6.03-13.47-13.47s6.03-13.47,13.47-13.47h153.61c7.44,0,13.47,6.03,13.47,13.47s-6.03,13.47-13.47,13.47Z"/>
  <path class="cls-2" d="M361.6,396.74c0,7.06-6.16,12.78-13.21,12.78h-16.34c-18.94,0-35.71-12.32-35.71-36.15v-31.26l-14.98-23.8c-3.09-4.43-3.09-10.58,0-15.44l14.98-24.26v-32.31c0-23.8,16.77-36.15,35.71-36.15h16.34c7.06,0,13.21,5.72,13.21,12.78,0,7.92-6.16,13.68-13.21,13.68h-6.62c-9.25,0-15.44,5.73-15.44,14.98v25.25c0,2.66-.43,5.29-2.2,7.06l-16.74,26.89,16.74,26.03c1.76,1.76,2.2,4.39,2.2,7.06v24.2c0,9.25,6.19,15.01,15.44,15.01h6.62c7.06,0,13.21,5.72,13.21,13.65Z"/>
  <path class="cls-2" d="M471.7,318.32l-15.01,23.8v31.26c0,23.83-16.74,36.15-35.71,36.15h-16.31c-7.06,0-13.21-5.73-13.21-12.78,0-7.92,6.16-13.65,13.21-13.65h6.62c9.25,0,15.44-5.76,15.44-15.01v-24.2c0-2.66.43-5.29,2.2-7.06l16.74-26.03-16.74-26.89c-1.76-1.76-2.2-4.39-2.2-7.06v-25.25c0-9.25-6.19-14.98-15.44-14.98h-6.62c-7.06,0-13.21-5.76-13.21-13.68,0-7.06,6.16-12.78,13.21-12.78h16.31c18.97,0,35.71,12.35,35.71,36.15v32.31l15.01,24.26c3.06,4.86,3.06,11.02,0,15.44Z"/>
</svg>