<?xml version="1.0" encoding="utf-8"?>
<!-- Generator: Adobe Illustrator 28.1.0, SVG Export Plug-In . SVG Version: 6.00 Build 0)  -->
<svg version="1.1" id="Layer_1" xmlns="http://www.w3.org/2000/svg" xmlns:xlink="http://www.w3.org/1999/xlink" x="0px" y="0px"
	 viewBox="0 0 500 500" style="enable-background:new 0 0 500 500;" xml:space="preserve">
<style type="text/css">
	.st0{fill:#FFFFFF;}
</style>
<path class="st0" d="M257.9,378.4c-34.2,0-68.4,0-102.7,0c-6.5,0-13,0.2-19.5,0c-16.5-0.3-26-9.8-26-26.3c-0.1-48.3,0-96.6,0-145
	c0-1.5,0-3,0-5h267.6c0,2.7,0,5.2,0,7.6c0,19.3,0,38.7,0,58c5.8,3.5,11.2,7.6,16.1,12.3c0-42,0-84-0.1-126c0-5.1-0.9-10.4-2.6-15.1
	c-5.7-16.1-20.1-25.6-38.4-25.9c-5.4-0.1-10.8,0-16.5,0c0-9.1,0.3-17.5-5.1-24.7c-5.4-7-12.5-10.9-21.3-11.3
	c-6.5-0.3-12.4,1.8-17.7,5.8c-9.9,7.6-11.1,18.3-10.3,29.9h-75.6c0.1-8.8,0.4-17.6-5.4-24.9c-5.8-7.2-13.2-11.1-22.5-10.8
	c-6.9,0.2-13,2.7-18.1,7.5c-8.1,7.6-9,17.4-8.3,28.5c-6.1,0-11.4-0.1-16.7,0c-24.4,0.4-41.1,17.2-41.2,41.5
	c-0.1,66.2-0.1,132.3,0,198.5c0,24.6,17,41.5,41.6,41.5c44.3,0,88.6,0.1,132.9,0C264.2,389.5,260.7,384.1,257.9,378.4z M297.4,104.4
	c0.1-6.7,5-11.5,11.3-11.4c6.1,0.1,10.6,4.7,10.9,11.4c0.2,5.6,0,11.3,0,17c0,5.3,0.1,10.6,0,15.9c-0.2,6.9-4.7,11.5-11.1,11.5
	c-6.4,0-11.1-4.6-11.1-11.5C297.2,126.3,297.2,115.4,297.4,104.4z M167.4,104.8c0.1-6.8,4.8-11.7,11-11.8c6.5-0.1,11.1,4.7,11.3,12
	c0.1,2.7,0,5.3,0,8c0,2.7,0,5.3,0,8c0,0,0,0,0,0c0,5.5,0.1,11,0,16.5c-0.2,6.9-4.8,11.5-11.2,11.4c-6.3,0-11-4.8-11.1-11.6
	C167.2,126.4,167.2,115.6,167.4,104.8z M110.7,147c0.7-8.9,9.9-16.5,18.9-17.4c6.9-0.7,13.9-0.1,21.7-0.1c0,2.9-0.1,5.7,0,8.4
	c0.4,15.5,11.9,27,26.9,27.2c15.2,0.1,27-11.4,27.5-27.1c0.1-2.8,0-5.6,0-8.6l0,0h75.6c0,3.4-0.2,6.8,0,10.2
	c0.8,13.8,11.2,24.3,25,25.4c13.4,1,25.7-7.8,28.5-20.8c1-4.6,0.8-9.5,1.2-15.5c8.1,0.5,16.3,0.1,24.2,1.7
	c8.2,1.6,14.6,7.6,15.7,15.8c1.6,12.9,1.3,26.1,1.8,39.4H110.4C110.4,172.5,109.7,159.6,110.7,147z"/>
<path class="st0" d="M350.2,341.6c-12,12.1-23.8,24.5-36.2,36.3c-2.5,2.4-7.2,4.4-10.3,3.8c-7.5-1.3-9-10.2-3.1-16.2
	c10-10.1,20-20.2,30.2-30.1c2.3-2.3,5.3-3.9,8-5.8c-0.6-0.9-1.2-1.7-1.8-2.6c-3.1,0.6-6.1,1.4-9.2,1.9c-7.1,1.3-12-1.4-13-7
	c-0.9-5.2,2.5-9.4,9.1-11c14.4-3.5,28.8-7,43.2-10.6c6.9-1.7,13.5,4.1,11.9,10.8c-3.6,15.1-7.5,30.1-11.2,45.2
	c-1.4,5.7-4.9,8.3-10.6,7.6c-5.2-0.6-7.9-4.6-7.2-10.8c0.2-2,0.7-3.9,1.1-5.9c0.3-1.7,0.5-3.4,0.7-5.1L350.2,341.6L350.2,341.6z"/>
<path class="st0" d="M334,431.3c-20.6,0-40.9-7.3-56.9-20.7c-2.5-2-4.8-4.2-7-6.4c-3.2-3.3-6.2-6.9-8.9-10.6
	C248,375.3,242,353.1,244.5,331c1.3-11.9,5-23.2,10.8-33.6l0.1-0.1c9.2-16.8,23.3-30,40.8-38l0.1,0c12-5.7,24.9-8.6,38.1-8.6
	c9,0,18,1.4,26.6,4.1l0.1,0c14.1,4.3,27.1,12.2,37.5,22.8c8.5,8.6,15,18.7,19.4,29.9c5,12.5,7.1,25.6,6.2,39.1v0.1
	c-2.1,37.3-26.3,68.8-61.7,80l-0.9,0.3c-0.3,0.1-0.6,0.2-0.8,0.3l-0.2,0C352,429.9,343.1,431.3,334,431.3L334,431.3L334,431.3z
	 M333.8,265.2c-5.9,0-11.8,0.7-17.5,2l-0.3,0.1c-28.2,7.3-50.2,30.3-56.1,58.6l0,0.1c-0.5,2.4-0.8,4.7-1,6.9
	c-0.4,3.9-0.5,7.9-0.3,11.9c1,18.6,8.9,36.2,22.2,49.5c7.1,7.2,15.4,12.7,24.5,16.6l0.1,0.1c6.9,2.8,14.3,4.6,21.8,5.3
	c2.4,0.2,4.9,0.4,7.4,0.4c13,0,25.9-3.3,37-9.7c5.1-2.9,9.8-6.4,14.1-10.3c24.7-22.9,31.1-60,16.6-89.6l0.4-0.4l-4.8-7.3
	c-2.9-4.5-6.3-8.6-10.1-12.4l-6.2-6.1l-0.5,0.4C367.9,271,351,265.2,333.8,265.2L333.8,265.2z"/>
</svg>
