<?xml version="1.0" encoding="UTF-8"?>
<svg id="Layer_1" data-name="Layer 1" xmlns="http://www.w3.org/2000/svg" viewBox="0 0 500 500">
  <defs>
    <style>
      .cls-1 {
        fill: #fff;
        stroke-width: 0px;
      }
    </style>
  </defs>
  <path class="cls-1" d="M433.85,138.19c-.19-9.79-5.43-16.4-14.93-18.71-3.13-.76-6.48-.84-9.73-.85-76.57-.04-153.13-.03-229.7-.03-6.56,0-13.12-.1-19.67.05-12.18.27-20.14,8.16-20.62,20.39,0,.18,0,.36-.01.54h.01v38.3h-58.15c-8.28,0-15,6.7-15,14.97v173.61c0,8.27,6.72,14.97,15,14.97h123.29c1.23,0,2.42-.16,3.56-.44,8.44-1.3,11.81-6.22,11.89-16.66.06-7.63.01-15.25.01-23.03h31.34c0,4.4-1.29,7.02-5.38,8.21-3.12.9-6.13,2.33-8.99,3.9-6.14,3.35-7.82,8.53-6.08,17.63.98,5.12,5.59,9.27,11.38,10,2.67.33,5.39.37,8.08.37,25.26.03,50.53.03,75.79,0,2.69,0,5.43-.02,8.07-.49,5.63-1,9.42-4.2,10.59-10.01,2.12-10.47-1.33-16.52-11.41-20.03-2-.7-3.99-1.43-6.04-1.96-4.03-1.05-5.6-3.49-4.74-8.14,2.23,0,4.31,0,6.4,0,27.58,0,55.16.07,82.74-.03,14.83-.05,22.34-7.8,22.34-22.61,0-51.11,0-102.22,0-153.32,0-8.87.11-17.75-.06-26.61ZM251.29,364.8c2.09-1.1,2.72-1.6,3.42-1.76,7.12-1.65,10.23-6.29,11.44-13.35,1.55-9.03,1.95-8.96,10.86-8.96,7.89,0,15.77.11,23.66-.05,3.28-.07,5.16,1.01,5.39,4.4.01.19.1.37.12.56,1.24,9.36,4.02,17.46,15.32,19.16h-70.19ZM417.79,320.93c-.07,1.35-2.47,2.86-4.1,3.74-1.05.57-2.64.16-3.99.17-60.9,0-121.81,0-182.71.01-2.08,0-4.17,0-6.8,0v-27.22h197.79c0,8.01.2,15.67-.19,23.3ZM418.06,281.31h-215.45v79.69c0,2.01-1.5,3.66-3.44,3.93h-59.97v.06h-52.43c-2.21,0-4-1.79-4-3.99v-162.7c0-2.2,1.79-3.99,4-3.99h132.56v-1.46c0-.52-.03-1.04-.08-1.55-.16-8.14-5.41-13.33-13.75-13.42-14.46-.15-28.92-.04-43.38-.04-2.07,0-4.15,0-6.94,0,0-13.51-.15-26.37.2-39.21.04-1.42,2.73-3.11,4.52-4.02,1.23-.63,3.02-.14,4.57-.14,81.56,0,163.13,0,244.69,0,8.68,0,8.89.19,8.89,8.66,0,43.77,0,87.54,0,131.31v6.88Z"/>
  <path class="cls-1" d="M224.78,239.53c-10.42,10.54-20.68,21.24-31.38,31.49-2.17,2.08-6.21,3.81-8.97,3.33-6.52-1.15-7.8-8.89-2.71-14.04,8.68-8.77,17.39-17.5,26.22-26.11,2.03-1.98,4.62-3.39,6.95-5.07l-1.57-2.22c-2.66.56-5.3,1.17-7.97,1.66-6.15,1.11-10.37-1.2-11.25-6.09-.82-4.53,2.18-8.11,7.88-9.51,12.51-3.06,25.02-6.11,37.52-9.23,6.02-1.5,11.7,3.53,10.29,9.39-3.16,13.08-6.54,26.11-9.73,39.18-1.21,4.97-4.25,7.18-9.22,6.63-4.5-.49-6.83-4.04-6.25-9.33.19-1.72.64-3.4.92-5.11.24-1.46.41-2.93.61-4.4l-1.32-.59Z"/>
</svg>