<?xml version="1.0" encoding="UTF-8"?>
<svg id="Layer_1" data-name="Layer 1" xmlns="http://www.w3.org/2000/svg" viewBox="0 0 500 500">
  <defs>
    <style>
      .cls-1 {
        fill: #fff;
        stroke-width: 0px;
      }
    </style>
  </defs>
  <path class="cls-1" d="M282.82,332.27c-5.21,0-9.47-4-9.68-9.1l-.04-.97c-.31-7.36-.64-14.97,1.16-22.47,2.35-9.81,7.53-18.09,15.4-24.59,12.31-10.17,19.87-22.89,22.47-37.78,3.7-21.19-1.7-39.57-16.06-54.61-12.86-13.47-27.8-20.3-44.4-20.3-5.96,0-12.19.9-18.5,2.68-24.24,6.82-39.78,23.45-44.93,48.11-5.01,23.96,2.2,44.57,21.44,61.27,11.74,10.18,17.42,22.38,17.36,37.29,0,1.24,0,2.47,0,3.71.01,2.19.03,4.45-.03,6.7-.11,4.5-2.68,8.14-6.72,9.51-1.09.37-2.23.56-3.38.56-3.15,0-5.9-1.39-7.54-3.81-1.08-1.58-1.79-3.67-2.18-6.39-.24-1.68-.19-3.33-.13-4.93.02-.65.04-1.3.04-1.94v-1.93h.08c0-.31-.02-.61-.03-.91-.06-2.11-.12-4.11-.41-6.07-.94-6.23-4.11-11.65-9.43-16.1-17.33-14.52-27.35-32.85-29.79-54.49-2.98-26.48,5-49.46,23.7-68.29,16.21-16.33,35.63-24.6,57.73-24.6,2.61,0,5.29.12,7.96.35,28.58,2.49,50.4,16.29,64.87,41.01,17.35,29.66,14.99,65.15-6.17,92.61-3.27,4.25-7.42,8.53-12.69,13.1-6.88,5.96-10.17,13-10.05,21.52.05,3.73.05,7.36,0,10.79-.07,5.48-4.04,9.71-9.43,10.07-.21.01-.43.02-.64.02Z"/>
  <path class="cls-1" d="M209.26,315.19c-.16-3.07-.08-6.18-.54-9.2-1.07-7.07-4.67-12.77-10.12-17.33-16.63-13.93-26.66-31.62-29.08-53.18-2.9-25.78,4.87-48.26,23.13-66.66,17.58-17.71,39.21-25.84,64.1-23.67,27.8,2.43,49.24,15.97,63.31,40.03,16.98,29.02,14.45,63.81-6.03,90.38-3.61,4.69-7.94,8.93-12.42,12.81-7.11,6.17-10.87,13.63-10.74,23.05.05,3.58.05,7.16,0,10.74-.06,4.48-3.2,7.81-7.56,8.1-4.11.27-8.01-2.8-8.19-7.17-.32-7.64-.74-15.34,1.07-22.88,2.27-9.47,7.22-17.3,14.73-23.51,12.37-10.23,20.4-23.12,23.17-38.98,3.74-21.44-1.57-40.6-16.58-56.34-17.85-18.7-40.01-25.17-64.89-18.17-25.05,7.05-41.01,24.12-46.35,49.62-5.25,25.09,2.75,46.41,22.09,63.19,10.99,9.54,16.73,21.23,16.67,35.77-.01,3.45.06,6.91-.02,10.36-.09,3.72-2.16,6.58-5.36,7.66-3.14,1.07-6.77.26-8.63-2.48-1.06-1.56-1.58-3.64-1.86-5.55-.31-2.15-.07-4.39-.07-6.59.05,0,.1,0,.15,0Z"/>
  <path class="cls-1" d="M243.92,252c-2.7,0-5.39-1.26-7.77-3.63l-4.06-4.05c-4.47-4.46-8.94-8.91-13.38-13.4-3.16-3.19-3.96-7.76-2.04-11.65,1.64-3.33,4.96-5.49,8.45-5.49.61,0,1.23.06,1.83.19,2.13.45,4.42,1.66,6.11,3.24,2.99,2.78,5.79,5.64,8.75,8.67.69.71,1.39,1.42,2.09,2.13l3.45-3.47c3.35-3.37,6.63-6.67,9.92-9.97l2.91-2.93c2.92-2.94,5.94-5.98,8.98-8.92,1.92-1.86,4.39-2.88,6.95-2.88,2.01,0,4,.62,5.75,1.8,3.63,2.45,5.15,7.43,3.53,11.59-.55,1.42-1.47,2.82-2.58,3.94-9.92,10-20.44,20.53-31.27,31.31-2.32,2.31-4.96,3.54-7.63,3.54Z"/>
  <path class="cls-1" d="M243.89,230.84c5.08-5.1,9.93-10,14.8-14.88,3.94-3.95,7.85-7.94,11.86-11.83,2.87-2.78,6.95-3.05,10.2-.86,2.83,1.91,4.1,5.83,2.78,9.2-.46,1.19-1.24,2.35-2.14,3.26-10.39,10.47-20.81,20.9-31.26,31.3-4.01,3.99-8.56,3.92-12.57-.09-5.82-5.81-11.65-11.6-17.43-17.44-2.61-2.63-3.2-6.25-1.66-9.36,1.48-3.01,4.69-4.94,8.07-4.22,1.85.39,3.77,1.45,5.16,2.75,4.13,3.84,8,7.95,12.2,12.18Z"/>
  <path class="cls-1" d="M247.2,367.69c-8.77,0-17.53,0-26.3-.03-4.73-.01-8.73-3.2-9.71-7.77-1.02-4.72,1.27-9.3,5.56-11.14,1.65-.71,3.42-.86,4.61-.87,4.99-.03,9.97-.04,14.96-.04h11.92s1.77,0,1.77,0h16.69c4.18,0,8.35,0,12.53.01,4.75.02,8.72,3.24,9.65,7.84.94,4.66-1.39,9.21-5.67,11.07-1.3.57-2.75.88-4.07.88-10.64.02-21.29.03-31.93.03Z"/>
  <path class="cls-1" d="M250,349.85c9.74,0,19.47-.02,29.21.01,3.86.01,6.96,2.59,7.69,6.23.74,3.68-1.06,7.34-4.5,8.84-1.01.44-2.18.72-3.28.72-19.41.04-38.81.05-58.22,0-3.9,0-6.98-2.58-7.76-6.19-.8-3.69.96-7.41,4.39-8.88,1.17-.5,2.55-.7,3.83-.71,9.55-.06,19.09-.03,28.64-.03h0Z"/>
  <path class="cls-1" d="M193.66,138.34c-3.5,0-6.67-1.83-8.48-4.91-4.06-6.88-9.37-15.96-14.52-25.16-1.79-3.19-1.79-6.92-.01-9.97,1.76-3.03,4.96-4.84,8.54-4.87,3.81,0,6.76,1.68,8.62,4.85,5.66,9.67,10.26,17.66,14.51,25.14,1.34,2.37,1.69,5.1.97,7.68-.7,2.52-2.32,4.6-4.57,5.87-1.57.88-3.32,1.35-5.06,1.35Z"/>
  <path class="cls-1" d="M179.2,95.44c3.03-.02,5.38,1.29,6.88,3.86,4.88,8.34,9.73,16.71,14.49,25.12,2.22,3.92.86,8.73-2.85,10.82-3.85,2.17-8.55,1.05-10.83-2.83-4.91-8.33-9.78-16.68-14.5-25.12-3.06-5.47.68-11.82,6.8-11.86Z"/>
  <path class="cls-1" d="M306.86,138.31c-3.87,0-7.27-1.85-9.09-4.95-1.81-3.08-1.79-6.89.05-10.19,1.65-2.97,3.39-5.94,5.07-8.82.76-1.31,1.53-2.62,2.28-3.93.7-1.21,1.39-2.42,2.09-3.63,1.59-2.78,3.24-5.65,4.92-8.45,1.88-3.13,4.99-4.93,8.55-4.93.77,0,1.55.09,2.33.26,4.16.92,7.24,4.44,7.49,8.57.13,2.16-.38,4.51-1.36,6.29-3.55,6.39-7.28,12.81-10.88,19.02-1.07,1.84-2.13,3.67-3.19,5.51-1.89,3.26-4.86,5.18-8.16,5.25h-.09Z"/>
  <path class="cls-1" d="M306.9,136.31c-6.81.03-10.48-6.52-7.34-12.16,2.38-4.28,4.89-8.49,7.34-12.72,2.32-4.02,4.6-8.07,6.99-12.06,1.89-3.15,5.24-4.52,8.73-3.75,3.15.7,5.72,3.34,5.93,6.73.1,1.72-.29,3.7-1.12,5.2-4.57,8.23-9.34,16.35-14.06,24.5-1.57,2.71-3.89,4.2-6.48,4.26Z"/>
  <path class="cls-1" d="M127.42,306.59c-5.61,0-9.85-4.77-9.85-11.09.06-2.82,1.9-5.66,4.67-7.29,10.16-5.96,18.01-10.49,25.47-14.69,1.5-.85,3.19-1.29,4.88-1.29,3.56,0,6.86,1.95,8.61,5.1,2.64,4.75,1.04,10.62-3.63,13.38-8.01,4.72-16.56,9.73-25.33,14.6-1.54.85-3.17,1.29-4.83,1.29Z"/>
  <path class="cls-1" d="M119.57,295.49c.04-1.83,1.25-4.13,3.68-5.56,8.44-4.95,16.91-9.87,25.44-14.67,3.92-2.21,8.66-.75,10.76,3.03,2.09,3.76.93,8.43-2.9,10.68-8.38,4.94-16.78,9.85-25.28,14.57-5.46,3.03-11.71-.85-11.71-8.06Z"/>
  <path class="cls-1" d="M372.59,306.61c-1.62,0-3.19-.42-4.68-1.24-9.27-5.12-18.17-10.36-25.65-14.8-4.61-2.74-6.1-8.79-3.31-13.49,1.77-2.99,5.04-4.85,8.53-4.85,1.7,0,3.39.45,4.88,1.29,7.5,4.25,15.54,8.89,25.3,14.59,2.85,1.67,4.73,4.49,4.79,7.2,0,3.39-1.14,6.39-3.24,8.49-1.8,1.8-4.14,2.79-6.61,2.79Z"/>
  <path class="cls-1" d="M380.44,295.37c.02,7.27-6.2,11.21-11.56,8.25-8.62-4.76-17.13-9.74-25.6-14.77-3.76-2.23-4.79-7.08-2.62-10.75,2.15-3.64,6.9-4.99,10.7-2.83,8.46,4.79,16.88,9.67,25.27,14.58,2.51,1.47,3.76,3.79,3.8,5.52Z"/>
  <path class="cls-1" d="M152.54,179.51c-1.75,0-3.52-.48-5.12-1.38-4.98-2.81-10.01-5.73-14.87-8.55-2.06-1.2-4.12-2.39-6.19-3.59l-.78-.45c-.95-.54-1.89-1.09-2.82-1.65-5-3-6.67-8.9-3.89-13.73,1.77-3.08,4.94-4.92,8.48-4.92,1.83,0,3.69.5,5.38,1.46,4.17,2.36,8.37,4.79,12.44,7.15,1.79,1.03,3.57,2.07,5.36,3.1.72.42,1.45.83,2.18,1.24,1.6.91,3.26,1.85,4.87,2.84,3.09,1.89,4.82,4.79,4.85,8.14-.02,5.8-4.36,10.33-9.88,10.33Z"/>
  <path class="cls-1" d="M160.41,169.2c-.02,6.61-6.49,10.3-12.02,7.19-7.05-3.98-14.03-8.08-21.05-12.13-1.2-.69-2.4-1.37-3.58-2.08-4.08-2.45-5.43-7.12-3.18-11.02,2.22-3.86,6.98-5.07,11.14-2.72,5.95,3.37,11.86,6.83,17.78,10.24,2.34,1.35,4.71,2.65,7.01,4.06,2.54,1.56,3.87,3.87,3.89,6.46Z"/>
  <path class="cls-1" d="M347.46,179.56c-3.44,0-6.68-1.85-8.46-4.82-1.37-2.3-1.79-5.08-1.14-7.64.63-2.48,2.17-4.56,4.36-5.86,10.22-6.08,18.14-10.64,25.66-14.79,1.51-.83,3.11-1.26,4.74-1.26,5.59,0,9.82,4.81,9.83,11.19-.04,2.75-1.91,5.58-4.76,7.25-9.86,5.78-17.96,10.44-25.47,14.68-1.46.82-3.1,1.25-4.75,1.25Z"/>
  <path class="cls-1" d="M380.44,156.38c-.03,1.72-1.27,4.06-3.77,5.52-8.45,4.95-16.92,9.86-25.44,14.66-3.74,2.11-8.37.73-10.52-2.85-2.2-3.68-1.22-8.53,2.52-10.76,8.47-5.04,16.98-10,25.61-14.76,5.39-2.98,11.59.89,11.61,8.19Z"/>
  <path class="cls-1" d="M376.79,235.82c-4.66,0-9.32,0-13.98-.02-5.76-.01-10.12-4.24-10.15-9.83-.01-2.76,1.02-5.29,2.9-7.13,1.87-1.82,4.45-2.84,7.27-2.85,1.87,0,3.74-.01,5.6-.01h8.72s8.65,0,8.65,0c1.83,0,3.66,0,5.49.01,5.73.03,10.09,4.24,10.16,9.79.03,2.68-.96,5.17-2.78,7.02-1.9,1.93-4.53,2.99-7.41,3-4.82,0-9.65.02-14.47.02Z"/>
  <path class="cls-1" d="M377.15,217.99c4.71,0,9.42-.02,14.13,0,4.67.02,8.12,3.34,8.17,7.81.05,4.53-3.46,7.99-8.19,8-9.48.02-18.96.02-28.44,0-4.64-.01-8.14-3.41-8.16-7.84-.02-4.56,3.43-7.94,8.19-7.97,4.77-.02,9.54,0,14.31,0Z"/>
  <path class="cls-1" d="M123.09,235.83c-4.87,0-9.74,0-14.61-.03-5.49-.02-9.94-4.46-9.93-9.89.02-5.5,4.35-9.85,9.87-9.91,1.89-.02,3.78-.02,5.67-.02,1.49,0,8.98.01,8.98.01h8.6c1.87,0,3.73,0,5.6,0,5.81.04,10.04,4.19,10.07,9.86.01,2.68-.99,5.17-2.81,7.01-1.87,1.88-4.43,2.93-7.22,2.94-4.74.02-9.48.03-14.22.03Z"/>
  <path class="cls-1" d="M122.94,217.99c4.77,0,9.54-.03,14.32,0,4.68.03,8.06,3.35,8.09,7.87.02,4.47-3.42,7.92-8.04,7.94-9.61.03-19.21.04-28.82,0-4.46-.02-7.95-3.55-7.94-7.88.01-4.41,3.41-7.87,7.89-7.92,4.83-.05,9.67-.01,14.5-.01Z"/>
  <path class="cls-1" d="M249.94,123.23c-5.59,0-9.83-4.54-9.85-10.55-.04-9-.04-18.31,0-27.67.02-5.98,4.26-10.52,9.87-10.54,5.8,0,9.98,4.44,10,10.56,0,3.38,0,6.77,0,10.15v8.48c0,3.01,0,6.03,0,9.04-.03,6.2-4.14,10.54-9.99,10.54h0Z"/>
  <path class="cls-1" d="M257.94,99.14c0,4.52.02,9.03,0,13.55-.03,5.11-3.26,8.55-8,8.55-4.45,0-7.84-3.64-7.86-8.56-.04-9.22-.04-18.44,0-27.66.02-4.92,3.38-8.53,7.88-8.55,4.68-.02,7.97,3.5,7.99,8.57.01,4.7,0,9.41,0,14.11Z"/>
  <path class="cls-1" d="M252.06,403.11c-5.15,0-10.3-.01-15.46-.03-5.74-.02-10.1-4.25-10.15-9.83-.04-5.65,4.34-9.95,10.18-9.99,1.75-.01,3.5-.02,5.25-.02h10.14v.02h6.15c1.75,0,3.49,0,5.24.01,5.74.05,10.1,4.27,10.13,9.81.02,2.7-.98,5.2-2.8,7.04-1.88,1.9-4.51,2.96-7.39,2.97-3.77.01-7.54.02-11.31.02Z"/>
  <path class="cls-1" d="M250.03,385.27c4.46,0,8.92-.03,13.38,0,4.7.04,8.12,3.36,8.15,7.82.03,4.56-3.43,7.98-8.19,7.99-8.92.03-17.84.02-26.75-.01-4.66-.02-8.12-3.39-8.15-7.84-.03-4.55,3.42-7.94,8.2-7.98,4.46-.04,8.92,0,13.38,0v.02Z"/>
</svg>