<?xml version="1.0" encoding="UTF-8"?>
<svg id="Layer_1" data-name="Layer 1" xmlns="http://www.w3.org/2000/svg" viewBox="0 0 500 500">
  <defs>
    <style>
      .cls-1 {
        stroke-width: 0px;
      }
    </style>
  </defs>
  <path class="cls-1" d="M321.94,130.15c1.62-2.21,3.41-4.48,5.49-6.45,6.35-6,16.28-5.95,22.65.03,8.73,8.2,17.2,16.7,25.45,25.39,7.03,7.42,6.85,16.63.05,24.14-2.21,2.44-5.29,4.35-6.76,7.14-1.38,2.62-2.27,6.42-1.44,9.1,2.12,6.82,4.88,13.55,8.32,19.81,1.5,2.73,5.04,4.95,8.13,6.01,2.95,1.02,6.53.12,9.82.27,10.05.48,16.16,6.35,16.44,16.47.31,11.38.27,22.78.02,34.17-.24,11.42-7.93,12.53-18.05,17.9-17.11,9.07-24.16,15.43-30.14,9.87-9.22-8.57-18.81-16.88-26.95-26.4-3.39-3.97-4.73-10.74-4.86-16.29-.92-39.89-25.79-71.09-63.96-79.45-43.71-9.57-88.91,21.97-94.94,66.25-6.32,46.4,27.34,89.87,72.95,90.74,17.74.34,30.1,5.51,40.54,18.74,3.87,4.91,8.94,8.85,13.22,13.47,5.77,6.22,5.05,11.03-2.96,13.24-8.69,2.4-10.73,7.23-10.42,15.59.57,15.29-5.03,20.48-20.25,20.54-9.29.03-18.59.03-27.88,0-15.43-.05-20.62-5.13-20.72-20.26-.01-2.1,1.5-7.42.71-9.16-1.3-2.83-3.84-3.34-6.34-4.66-6.58-3.48-13.55-6.39-20.65-8.61-2.61-.81-6.39.31-8.97,1.74-2.78,1.53-4.67,4.6-7.14,6.76-7.59,6.65-16.02,6.75-23.34-.2-8.69-8.25-17.14-16.78-25.45-25.41-7.81-8.11-8.27-16.94.48-24.27,8.96-7.5,9.49-13.26,4.81-24.15-.34-.8-.68-1.67-1.03-2.48-5.75-13.41-9.71-16.93-22.69-15.52-9.86,1.07-15.97-6.1-16.17-16.27-.23-11.6-.2-23.21-.02-34.81.14-9.53,7.75-17.29,17.28-17.58,2.4-.07,4.82-.22,7.19.02,5.5.56,8.62-2.22,11.26-7.95,1.21-2.61,3.15-7.64,3.97-9.52,5.96-13.66,6.14-17.32-6.97-27.11-6.32-4.72-5.15-14.04.66-20.19,8.85-9.36,17.93-18.54,27.35-27.33,7.59-7.07,16.71-6.55,24.41,2.39,6.54,7.6,13.4,9.13,22.87,4.29,1.04-.53,6.88-3.27,7.9-3.81,12.5-6.54,12-7.12,10.28-21.1-1.13-9.22,6.25-15.31,15.96-15.51,11.99-.25,23.98-.24,35.97-.01,10.54.2,16.68,4.95,17.07,15.68.08,2.1-.09,5.56-.41,7.61-1.04,6.83,1.7,10.11,8.47,12.05,6.05,1.74,11.81,4.5,18.88,7.68,3.51,1.58,7.66.5,9.93-2.6ZM283.14,363.18c-4.27-3.78-7.62-6.02-10.01-9.01-6.61-8.24-14.29-12.2-25.42-11.13-7.21.69-14.91-1.28-22.1-3.18-47.02-12.45-76.49-60.42-66.9-108.39,9.54-47.7,55.91-80.6,103.87-73.71,46.61,6.7,80.09,44.88,81.07,92.23.07,3.39.34,7.52,2.23,10,5.38,7.07,15.64,15.74,21.28,22.11,10.68-4.55,12.91-5.79,20.19-8.61,6.47-3.54,9.77-3.61,9.14-10.39-.56-5.98-.58-11.99-.16-17.98.91-12.84-1.72-16.76-13.29-16.35-8.75.31-15.21-2.69-18.64-11.01-3.52-8.56-6.91-17.19-10.4-25.76-3.2-7.84-1.84-14.59,4.58-20.27,2.25-1.99,4.45-4.02,6.49-5.92,1.82-1.69,1.86-4.55.11-6.3-7.67-7.66-15.12-15.1-23.01-22.98-2.07-2.07-5.46-1.73-7.17.64-11.29,15.66-26.33,9.71-42.87,2.13-18.82-8.63-19.53-7.53-20.02-28.44-.13-5.58-2.01-7.37-7.36-7.16-7.78.3-15.59.06-23.38.07-11.57.01-11.82.02-11.63,11.74.16,9.92-2.5,17.68-13.26,21.19-7.34,2.39-14.55,5.16-21.46,8.58-8.41,4.16-15.6,3.4-22.03-2.96-3.54-3.5-9.33-8.25-9.33-8.25-8.62,8.27-17.49,17.01-26.38,25.59-1.95,1.89-1.86,5.04.2,6.81.75.64,1.53,1.3,2.32,1.95,10.75,8.79,11.52,12.88,5.69,25.84-3.1,6.9-5.87,13.95-8.39,21.08-2.91,8.23-8.47,12.18-17.22,12.06-2.1-.03-4.22.22-6.29-.02-6.79-.79-9.96,1.43-9.29,8.92.64,7.14.13,14.38.14,21.57q0,11.99,12.14,12.05c9.7.05,18.34,6.2,21.5,15.36,2.28,6.6,4.87,13.15,8.04,19.36,4.45,8.74,3.2,16.09-3.78,22.74-2.39,2.27-5.15,4.37-6.81,7.11-1.03,1.71-1.34,5.39-.23,6.61,8.4,9.22,17.22,18.05,27.28,28.41,20.37-21.5,27.51-18.7,44.08-10.7.8.39,2.98,1.65,3.79,2.05,16.39,8.19,17.91,7.42,18.23,27.92.1,6.04,2.25,7.86,7.94,7.65,8.68-.31,17.41-.5,26.07.05,7.29.46,9.65-2.32,8.96-9.33-.9-9.26-.18-18.15,11.5-23.95Z"/>
  <path class="cls-1" d="M317.04,240.98c-.07-.63-.16-1.26-.25-1.88-.01-.07-.02-.14-.03-.2-1.51-9.91-5.27-19.08-10.72-27.01-.17-.25-.35-.5-.52-.74-.24-.34-.48-.67-.72-1-.24-.32-.48-.64-.72-.96-.19-.24-.37-.48-.56-.72-.28-.36-.56-.71-.84-1.06-.13-.16-.26-.31-.39-.47-.56-.67-1.14-1.34-1.73-1.99-.21-.23-.42-.47-.63-.7-.24-.26-.48-.51-.72-.76-.33-.34-.65-.68-.99-1.01-.16-.16-.33-.32-.49-.49-16.15-15.86-40.18-23.6-64.44-16.7-1.13.32-2.14.67-3.04,1.03-2.77,1-5.26,2.56-5.72,4.87-.38,1.94.82,3.75,1.68,4.87,3.75,4.9,16.21,16.84,25.45,25.49,3,2.93,6.06,5.92,9.22,9.04-4.72,4.98-9.44,9.97-14.16,14.95-4.75,4.5-9.51,9.01-14.26,13.51-4.74-4.84-27.96-28.46-35.21-34.01-1.01-.77-2.87-2.07-4.87-1.68-2.3.46-3.87,2.95-4.87,5.72-.36.9-.71,1.91-1.03,3.04-6.9,24.26.84,48.29,16.7,64.44.16.16.32.33.49.49.33.33.67.66,1.01.99.25.24.5.48.76.72.23.22.47.43.71.64.65.58,1.31,1.16,1.97,1.71.16.13.31.27.47.4.35.29.7.56,1.06.84.24.19.48.38.73.56.32.24.64.48.96.72.33.25.67.49,1.01.73.24.17.49.35.74.52,7.93,5.45,17.11,9.22,27.02,10.73.06,0,.13.02.19.03.63.09,1.26.18,1.89.25.27.03.55.07.82.1.34.04.69.07,1.03.1,4.9.45,9.9.35,14.92-.35,6.91-.77,11.64.76,16.66,5.92,22.37,22.99,45.24,45.49,67.92,68.19,8.51,8.51,18.38,13.54,30.72,11.15,7.53-1.46,13.68-4.71,18.25-9.65,4.94-4.57,8.19-10.72,9.65-18.25,2.39-12.34-2.63-22.21-11.15-30.72-22.69-22.68-45.2-45.54-68.19-67.92-5.16-5.02-6.68-9.75-5.92-16.66.7-5.02.81-10.02.35-14.92-.03-.34-.06-.68-.1-1.02-.03-.28-.06-.55-.1-.83ZM303.32,251.84c-.01.18-.02.37-.04.55-.02.27-.05.54-.07.81-.21,2.02-.54,4.05-1.02,6.08-.28,1.2-.48,2.33-.62,3.42-1.35,5.7-.15,9.26,3.26,13.03.96,1.31,2.11,2.61,3.48,3.94,24.31,23.59,48.12,47.7,71.99,71.75,5.91,5.96,8.34,12.65,7.42,18.76-.53,2.63-1.68,5.24-3.48,7.8-.72,1.02-1.48,1.96-2.29,2.8-.85.8-1.78,1.57-2.8,2.29-2.56,1.8-5.17,2.95-7.8,3.48-6.11.92-12.8-1.51-18.76-7.42-24.05-23.86-48.16-47.68-71.75-71.99-1.33-1.37-2.63-2.52-3.94-3.48-3.77-3.41-7.33-4.6-13.03-3.26-1.08.13-2.22.34-3.42.62-2.03.48-4.06.81-6.08,1.02-.27.02-.54.05-.81.07-.19.02-.37.02-.56.04-10.36.59-20.44-1.9-29.11-6.83-16.92-9.84-28.26-28.92-25.54-49.78.09-.04.18-.08.27-.11,1.81,1.33,19.09,18.24,25.88,25.41,2.32,2.45,4.72,4.16,7.3,4.04,2.46-.11,4.23-1.82,5.02-2.59,2.26-2.21,7.65-7.55,15.29-15.19,10.91-10.88,18.57-18.61,21.34-21.45.1-.1.22-.22.35-.36h0s0,0,0,0c.85-.91,2.15-2.52,2.24-4.65.12-2.58-1.59-4.98-4.04-7.3-6.41-6.07-12.79-12.17-19.16-18.27-2.08-2.54-4.16-5.08-6.24-7.62.04-.08.07-.17.11-.25,20.85-2.72,39.93,8.62,49.78,25.53,4.93,8.68,7.43,18.76,6.84,29.12Z"/>
</svg>